<svg width="290" height="181" viewBox="0 0 290 181" fill="none" xmlns="http://www.w3.org/2000/svg">
<rect width="290" height="181" fill="#ECECEC"/>
<path d="M97.2051 153H94.7881L91.5713 147.744L88.3281 153H86.0781L90.3408 146.338L86.3506 140.15H88.6885L91.6592 145.011L94.6299 140.15H96.8975L92.8809 146.373L97.2051 153ZM102.549 149.054V147.296H107.066V149.054H102.549ZM123.555 153H121.138L117.921 147.744L114.678 153H112.428L116.69 146.338L112.7 140.15H115.038L118.009 145.011L120.979 140.15H123.247L119.23 146.373L123.555 153ZM123.59 143.279H125.84L127.817 148.79C128.116 149.575 128.315 150.313 128.415 151.005H128.485C128.538 150.683 128.635 150.293 128.775 149.836C128.916 149.373 129.66 147.188 131.008 143.279H133.24L129.083 154.292C128.327 156.313 127.067 157.324 125.304 157.324C124.847 157.324 124.401 157.274 123.968 157.175V155.54C124.278 155.61 124.633 155.646 125.031 155.646C126.027 155.646 126.728 155.068 127.132 153.914L127.492 153L123.59 143.279ZM144.042 156.437H142.117V153H135.455V156.437H133.548V151.4H134.339C135.03 150.41 135.578 149.215 135.982 147.814C136.393 146.408 136.636 144.896 136.712 143.279H142.618V151.4H144.042V156.437ZM140.588 151.4V144.861H138.496C138.385 146.068 138.15 147.258 137.793 148.43C137.441 149.602 137.011 150.592 136.501 151.4H140.588ZM154.466 148.122C154.466 149.71 154.059 150.949 153.244 151.84C152.43 152.73 151.296 153.176 149.843 153.176C148.935 153.176 148.132 152.971 147.435 152.561C146.737 152.15 146.201 151.562 145.826 150.794C145.451 150.026 145.264 149.136 145.264 148.122C145.264 146.546 145.668 145.315 146.477 144.431C147.285 143.546 148.425 143.104 149.896 143.104C151.302 143.104 152.415 143.558 153.235 144.466C154.056 145.368 154.466 146.587 154.466 148.122ZM147.391 148.122C147.391 150.366 148.22 151.488 149.878 151.488C151.519 151.488 152.339 150.366 152.339 148.122C152.339 145.901 151.513 144.791 149.86 144.791C148.993 144.791 148.363 145.078 147.971 145.652C147.584 146.227 147.391 147.05 147.391 148.122ZM161.638 147.999V143.279H163.562V147.999L167.307 143.279H169.486L165.663 147.981L169.829 153H167.553L163.562 148.069V153H161.638V148.069L157.656 153H155.389L159.546 147.981L155.731 143.279H157.911L161.638 147.999ZM173.397 143.279V147.182H177.977V143.279H180.042V153H177.977V148.808H173.397V153H171.332V143.279H173.397ZM184.981 143.279V148.263C184.981 148.843 184.935 149.695 184.841 150.82L189.719 143.279H192.241V153H190.255V148.104C190.255 147.835 190.27 147.398 190.299 146.795C190.334 146.191 190.363 145.752 190.387 145.477L185.526 153H183.004V143.279H184.981ZM201.215 143.279H203.482L199.466 147.964L203.825 153H201.452L197.251 148.069V153H195.186V143.279H197.251V147.999L201.215 143.279Z" fill="#666666"/>
<path d="M110.016 44.2206C112.769 44.2206 115.009 41.9803 115.009 39.2272C115.009 36.4741 112.769 34.2339 110.016 34.2339C107.263 34.2339 105.022 36.4741 105.022 39.2272C105.022 41.9803 107.263 44.2206 110.016 44.2206ZM110.016 37.0872C111.196 37.0872 112.156 38.047 112.156 39.2272C112.156 40.4074 111.196 41.3672 110.016 41.3672C108.836 41.3672 107.876 40.4074 107.876 39.2272C107.876 38.047 108.836 37.0872 110.016 37.0872Z" fill="#B6B6B6"/>
<path d="M174.929 63.4806C174.929 66.2337 177.169 68.474 179.923 68.474C182.676 68.474 184.916 66.2337 184.916 63.4806C184.916 60.7275 182.676 58.4873 179.923 58.4873C177.169 58.4873 174.929 60.7275 174.929 63.4806ZM179.923 61.3406C181.103 61.3406 182.063 62.3004 182.063 63.4806C182.063 64.6608 181.103 65.6206 179.923 65.6206C178.742 65.6206 177.783 64.6608 177.783 63.4806C177.783 62.3004 178.743 61.3406 179.923 61.3406Z" fill="#B6B6B6"/>
<path d="M185.629 47.976C186.521 47.976 187.244 47.2527 187.244 46.3606C187.244 45.4685 186.521 44.7453 185.629 44.7453C184.737 44.7453 184.014 45.4685 184.014 46.3606C184.014 47.2527 184.737 47.976 185.629 47.976Z" fill="#B6B6B6"/>
<path d="M117.149 53.6827C118.041 53.6827 118.764 52.9594 118.764 52.0673C118.764 51.1752 118.041 50.452 117.149 50.452C116.257 50.452 115.534 51.1752 115.534 52.0673C115.534 52.9594 116.257 53.6827 117.149 53.6827Z" fill="#B6B6B6"/>
<path d="M169.873 41.4301C170.151 41.7086 170.517 41.8481 170.882 41.8481C171.246 41.8481 171.612 41.7086 171.89 41.4301L173.502 39.8179L175.114 41.4301C175.393 41.7086 175.758 41.8481 176.123 41.8481C176.488 41.8481 176.853 41.7086 177.132 41.4301C177.689 40.873 177.689 39.9699 177.132 39.4128L175.52 37.8006L177.132 36.1885C177.689 35.6314 177.689 34.7283 177.132 34.1712C176.575 33.6141 175.672 33.6141 175.114 34.1712L173.502 35.7833L171.89 34.1712C171.333 33.6141 170.43 33.6141 169.873 34.1712C169.316 34.7283 169.316 35.6314 169.873 36.1885L171.485 37.8006L169.873 39.4128C169.316 39.9699 169.316 40.8726 169.873 41.4301Z" fill="#B6B6B6"/>
<path d="M104.246 71.3901C104.525 71.6686 104.89 71.8081 105.255 71.8081C105.619 71.8081 105.985 71.6686 106.263 71.3901L107.875 69.7779L109.488 71.3901C109.766 71.6686 110.131 71.8081 110.496 71.8081C110.861 71.8081 111.226 71.6686 111.505 71.3901C112.062 70.8329 112.062 69.9299 111.505 69.3728L109.893 67.7606L111.505 66.1485C112.062 65.5914 112.062 64.6883 111.505 64.1312C110.948 63.5741 110.045 63.5741 109.488 64.1312L107.875 65.7433L106.263 64.1312C105.706 63.5741 104.803 63.5741 104.246 64.1312C103.689 64.6883 103.689 65.5914 104.246 66.1485L105.858 67.7606L104.246 69.3728C103.689 69.9299 103.689 70.8326 104.246 71.3901Z" fill="#B6B6B6"/>
<path d="M152.815 72.0406C153.603 72.0406 154.242 71.4018 154.242 70.6139C154.242 69.826 153.603 69.1873 152.815 69.1873C152.027 69.1873 151.389 69.826 151.389 70.6139C151.389 71.4018 152.027 72.0406 152.815 72.0406Z" fill="#B6B6B6"/>
<path d="M138.549 72.0406C139.337 72.0406 139.975 71.4018 139.975 70.6139C139.975 69.826 139.337 69.1873 138.549 69.1873C137.761 69.1873 137.122 69.826 137.122 70.6139C137.122 71.4018 137.761 72.0406 138.549 72.0406Z" fill="#B6B6B6"/>
<path d="M185.058 93.7262C183.248 92.3677 183.096 90.1735 182.921 87.6337C182.646 83.674 182.305 78.7477 174.393 77.7583C170.361 77.2582 166.364 78.5497 163.131 81.4016C160.445 83.7742 158.548 87.0102 157.664 90.5102L152.103 87.9832V86.8322C152.103 86.819 152.095 86.808 152.095 86.7948C157.555 84.1858 161.707 79.3248 163.391 73.4644C164.339 73.4893 165.213 73.2343 166.075 72.6968C167.399 71.8708 168.295 70.5276 168.47 69.1009C168.647 67.6714 168.204 66.2379 167.258 65.1665C166.608 64.4321 165.764 63.9125 164.836 63.6578C164.833 63.4071 164.823 62.4954 164.82 62.4006C164.891 62.2294 164.943 56.0416 164.943 56.0416C165.273 56.0023 165.595 55.9424 165.899 55.8372C166.969 55.468 167.785 54.7101 168.323 53.5859H168.324C170.181 49.7075 166.864 44.2131 160.563 39.983C161.005 38.8652 161.051 37.6461 160.648 36.5034C160.204 35.2454 159.298 34.2353 158.096 33.6597C156.893 33.0815 155.539 33.0091 154.278 33.4521C153.134 33.8562 152.213 34.6558 151.619 35.6994C144.374 33.4414 138.014 34.3009 136.155 38.1793C135.737 39.0532 135.647 39.9662 135.85 40.8504C129.744 43.642 126.398 48.92 126.424 55.8079L126.442 58.1637C126.456 59.4969 126.491 61.9947 126.517 62.1063C126.517 62.127 126.532 63.3061 126.532 63.6546C125.674 63.8872 124.892 64.3483 124.257 65.006C123.308 65.9911 122.812 67.2869 122.861 68.6547C122.914 70.1816 123.78 71.6557 125.176 72.5977C126.058 73.1926 126.943 73.4836 127.904 73.4683C129.396 78.9199 133.015 83.4949 137.843 86.2726C137.843 86.2848 137.837 86.2947 137.837 86.3069V87.9828L126.466 93.1502C121.241 95.5256 117.863 100.834 117.863 106.671V118.407C117.863 119.195 118.501 119.833 119.29 119.833H170.65C171.439 119.833 172.077 119.195 172.077 118.407V111.838C172.779 111.926 173.49 111.987 174.217 111.987C180.518 111.987 187.2 107.908 188.809 103.082C189.46 101.127 189.839 97.3125 185.058 93.7262ZM155.226 36.1442C155.767 35.9548 156.346 35.988 156.86 36.2319C157.718 36.6439 158.167 37.5545 158.047 38.449C157.463 38.1276 156.865 37.8148 156.244 37.5177C155.63 37.2235 155.017 36.9549 154.406 36.7034C154.636 36.4613 154.902 36.258 155.226 36.1442ZM138.727 39.4113C139.37 38.0723 141.374 37.2934 144.186 37.2934C147.124 37.2934 150.944 38.1433 155.013 40.0911C162.973 43.9056 167.06 49.6151 165.749 52.3543C165.487 52.9018 165.193 53.062 164.966 53.1415C163.305 53.71 159.367 51.7608 155.187 49.699C154.16 49.1918 153.083 48.6596 151.957 48.1203C150.852 47.5911 149.757 47.0824 148.696 46.5892C144.088 44.4477 139.326 42.2325 138.651 40.3504C138.539 40.0393 138.561 39.7579 138.727 39.4113ZM137.299 43.321C139.301 45.3644 143.036 47.1049 147.492 49.1764C148.545 49.6654 149.631 50.1698 150.725 50.6951C151.84 51.2287 152.907 51.7555 153.924 52.257C157.162 53.8563 159.852 55.1806 162.089 55.7651V61.1597C157.82 64.3697 152.992 65.586 148.43 64.5884C144.339 63.6953 140.947 61.1027 139.124 57.4761C138.917 57.0638 138.522 56.7766 138.067 56.7071C137.608 56.6333 137.147 56.7906 136.827 57.1223C134.986 59.0169 132.299 60.1554 129.31 60.3419C129.309 59.6535 129.301 58.9042 129.293 58.1363L129.275 55.7969C129.248 48.4446 133.538 44.9635 137.299 43.321ZM130.378 71.553C130.296 71.1532 130.046 70.8076 129.692 70.6028C129.338 70.3995 128.913 70.3603 128.525 70.4873C127.973 70.6752 127.463 70.7006 126.772 70.2323C126.14 69.806 125.733 69.1623 125.71 68.5534C125.689 67.9656 125.903 67.4096 126.31 66.9873C126.716 66.5664 127.263 66.3339 127.849 66.3339C128.235 66.3339 128.619 66.1695 128.888 65.8938C129.284 65.4865 129.407 65.1369 129.382 63.1899C132.434 63.0187 135.266 62.0232 137.485 60.3376C139.818 63.9057 143.498 66.433 147.821 67.3761C149.069 67.6493 150.33 67.7845 151.594 67.7845C155.142 67.7834 158.701 66.703 162.013 64.6461C162.067 65.2981 162.197 65.6102 162.486 65.902C162.753 66.1737 163.134 66.3339 163.516 66.3339C164.129 66.3339 164.714 66.5971 165.119 67.0569C165.531 67.5223 165.715 68.124 165.639 68.7524C165.566 69.332 165.165 69.9006 164.566 70.2754C163.964 70.6503 163.454 70.7073 162.809 70.4801C162.425 70.3393 161.997 70.3799 161.64 70.5775C161.282 70.7769 161.027 71.1207 160.939 71.5209C159.55 77.8992 154.836 83.1097 148.634 85.1188L148.004 85.325C146.231 85.9003 144.418 85.9213 142.766 85.3877C136.458 83.3579 131.711 78.0565 130.378 71.553ZM141.891 88.1045C142.972 88.4529 144.097 88.6256 145.238 88.6256C146.449 88.6256 147.676 88.4305 148.885 88.0388L149.249 87.9201V88.4472C149.249 90.8073 147.329 92.7272 144.969 92.7272C142.609 92.7272 140.689 90.8073 140.689 88.4472V87.6315C141.09 87.7885 141.478 87.9714 141.891 88.1045ZM169.222 116.981H160.662V109.847C160.662 109.059 160.024 108.421 159.236 108.421C158.447 108.421 157.809 109.059 157.809 109.847V116.981H130.702V109.847C130.702 109.059 130.064 108.421 129.276 108.421C128.487 108.421 127.849 109.059 127.849 109.847V116.981H120.716V106.672C120.716 101.951 123.437 97.6621 127.647 95.7478L138.299 90.9068C139.306 93.6264 141.904 95.5806 144.969 95.5806C148.034 95.5806 150.632 93.6264 151.639 90.9064L157.175 93.422C157.135 93.9028 157.096 94.3839 157.096 94.8672C157.096 102.571 162.211 109.098 169.222 111.24V116.981ZM186.101 102.18C184.888 105.819 179.223 109.134 174.216 109.134C166.349 109.134 159.949 102.734 159.949 94.8672C159.949 90.5776 161.845 86.3436 165.02 83.5416C167.266 81.5589 169.951 80.5057 172.698 80.5057C173.144 80.5057 173.591 80.5335 174.039 80.5891C179.621 81.2871 179.811 84.0317 180.074 87.8298C180.269 90.6596 180.491 93.8668 183.347 96.0082C185.901 97.9239 186.827 100.001 186.101 102.18Z" fill="#B6B6B6"/>
<path d="M179.922 96.3524C177.594 96.3524 175.701 98.246 175.701 100.574C175.701 102.9 177.594 104.794 179.922 104.794C182.25 104.794 184.144 102.9 184.144 100.574C184.144 98.246 182.251 96.3524 179.922 96.3524ZM179.922 101.941C179.169 101.941 178.554 101.328 178.554 100.574C178.554 99.8203 179.169 99.2058 179.922 99.2058C180.676 99.2058 181.29 99.8203 181.29 100.574C181.29 101.328 180.676 101.941 179.922 101.941Z" fill="#B6B6B6"/>
<path d="M171.362 82.5734C169.303 82.5734 167.628 84.2479 167.628 86.3073C167.628 88.3667 169.303 90.0413 171.362 90.0413C173.422 90.0413 175.096 88.3667 175.096 86.3073C175.096 84.2479 173.422 82.5734 171.362 82.5734ZM171.362 87.1879C170.878 87.1879 170.482 86.7924 170.482 86.3073C170.482 85.8222 170.877 85.4267 171.362 85.4267C171.847 85.4267 172.243 85.8222 172.243 86.3073C172.243 86.7924 171.847 87.1879 171.362 87.1879Z" fill="#B6B6B6"/>
<path d="M168.676 94.1539C168.676 92.0948 167.002 90.4199 164.942 90.4199C162.883 90.4199 161.208 92.0945 161.208 94.1539C161.208 96.2133 162.883 97.8878 164.942 97.8878C167.002 97.8878 168.676 96.2133 168.676 94.1539ZM164.942 95.0345C164.458 95.0345 164.062 94.6389 164.062 94.1539C164.062 93.6688 164.457 93.2733 164.942 93.2733C165.428 93.2733 165.823 93.6688 165.823 94.1539C165.823 94.6389 165.428 95.0345 164.942 95.0345Z" fill="#B6B6B6"/>
<path d="M169.936 99.6934C167.877 99.6934 166.202 101.368 166.202 103.427C166.202 105.487 167.876 107.161 169.936 107.161C171.995 107.161 173.67 105.487 173.67 103.427C173.67 101.368 171.995 99.6934 169.936 99.6934ZM169.936 104.308C169.451 104.308 169.055 103.912 169.055 103.427C169.055 102.942 169.451 102.547 169.936 102.547C170.421 102.547 170.816 102.942 170.816 103.427C170.816 103.912 170.421 104.308 169.936 104.308Z" fill="#B6B6B6"/>
<path d="M113.9 84.7205C113.635 84.4587 113.366 84.1926 113.105 83.918C113.104 83.9176 113.104 83.9176 113.104 83.9173C113.104 83.9173 113.104 83.9169 113.104 83.9166C112.01 82.7727 111.281 81.7306 111.281 80.3667C111.281 78.5541 110.341 78.0565 109.779 77.9217C107.555 77.3589 104.949 81.7252 103.595 84.3652C102.781 85.9521 101.81 88.173 101.81 89.7431C101.81 92.5115 103.337 94.9072 105.576 96.2041L104.751 114.531C104.684 116.012 105.203 117.445 106.174 118.459C107.021 119.346 108.132 119.834 109.303 119.834C110.473 119.834 111.585 119.346 112.432 118.459C113.403 117.445 113.921 116.013 113.854 114.531L113.029 96.2041C115.268 94.9069 116.795 92.5112 116.795 89.7431C116.795 87.5877 115.257 86.0637 113.9 84.7205ZM108.578 81.7694C108.842 82.9635 109.423 83.9569 110.096 84.8121C109.592 85.187 109.095 85.3846 108.608 85.4042C107.954 85.4014 107.243 85.0993 106.664 84.6798C107.354 83.4525 108.033 82.4621 108.578 81.7694ZM111.003 114.659C111.036 115.366 110.804 116.033 110.37 116.487C110.155 116.713 109.794 116.981 109.303 116.981C108.811 116.981 108.45 116.713 108.235 116.487C107.801 116.033 107.57 115.366 107.602 114.659L108.39 97.1435C108.693 97.1806 108.99 97.2359 109.303 97.2359C109.615 97.2359 109.912 97.181 110.215 97.1435L111.003 114.659ZM109.302 94.3826C106.744 94.3826 104.663 92.3011 104.663 89.7431C104.663 89.3386 104.875 88.4787 105.397 87.2393C106.425 87.8966 107.47 88.259 108.525 88.259C108.589 88.259 108.653 88.2576 108.718 88.2547C109.887 88.2098 111.001 87.7507 112.047 86.9015C113.078 87.9255 113.942 88.8236 113.942 89.7427C113.942 92.3011 111.86 94.3826 109.302 94.3826Z" fill="#B6B6B6"/>
</svg>
